<mxfile host="app.diagrams.net" modified="2021-03-12T00:32:57.291Z" agent="5.0 (Windows NT 10.0; Win64; x64) AppleWebKit/537.36 (KHTML, like Gecko) Chrome/88.0.4324.190 Safari/537.36" etag="kUAOwgIPTWp9mvXwyC6y" version="14.4.4" type="github">
  <diagram id="kBnHwaBgWfEJw1op67oa" name="Page-1">
    <mxGraphModel dx="1248" dy="634" grid="1" gridSize="10" guides="1" tooltips="1" connect="1" arrows="1" fold="1" page="1" pageScale="1" pageWidth="850" pageHeight="1100" math="0" shadow="0">
      <root>
        <mxCell id="0" />
        <mxCell id="1" parent="0" />
        <mxCell id="2gUIK2lD_gpO5AOVNTZ6-7" style="edgeStyle=orthogonalEdgeStyle;rounded=0;orthogonalLoop=1;jettySize=auto;html=1;exitX=1;exitY=1;exitDx=0;exitDy=0;entryX=0;entryY=0;entryDx=0;entryDy=0;" edge="1" parent="1" source="2gUIK2lD_gpO5AOVNTZ6-1" target="2gUIK2lD_gpO5AOVNTZ6-2">
          <mxGeometry relative="1" as="geometry" />
        </mxCell>
        <mxCell id="2gUIK2lD_gpO5AOVNTZ6-28" style="edgeStyle=orthogonalEdgeStyle;rounded=0;orthogonalLoop=1;jettySize=auto;html=1;exitX=0.75;exitY=1;exitDx=0;exitDy=0;entryX=0;entryY=0.5;entryDx=0;entryDy=0;" edge="1" parent="1" source="2gUIK2lD_gpO5AOVNTZ6-1" target="2gUIK2lD_gpO5AOVNTZ6-27">
          <mxGeometry relative="1" as="geometry" />
        </mxCell>
        <mxCell id="2gUIK2lD_gpO5AOVNTZ6-1" value="Activity" style="rounded=1;whiteSpace=wrap;html=1;" vertex="1" parent="1">
          <mxGeometry x="70" y="40" width="120" height="60" as="geometry" />
        </mxCell>
        <mxCell id="2gUIK2lD_gpO5AOVNTZ6-8" style="edgeStyle=orthogonalEdgeStyle;rounded=0;orthogonalLoop=1;jettySize=auto;html=1;exitX=1;exitY=1;exitDx=0;exitDy=0;entryX=0;entryY=0;entryDx=0;entryDy=0;" edge="1" parent="1" source="2gUIK2lD_gpO5AOVNTZ6-2" target="2gUIK2lD_gpO5AOVNTZ6-3">
          <mxGeometry relative="1" as="geometry" />
        </mxCell>
        <mxCell id="2gUIK2lD_gpO5AOVNTZ6-2" value="Flagged" style="rounded=1;whiteSpace=wrap;html=1;fillColor=#d5e8d4;strokeColor=#82b366;" vertex="1" parent="1">
          <mxGeometry x="200" y="130" width="120" height="60" as="geometry" />
        </mxCell>
        <mxCell id="2gUIK2lD_gpO5AOVNTZ6-9" style="edgeStyle=orthogonalEdgeStyle;rounded=0;orthogonalLoop=1;jettySize=auto;html=1;exitX=1;exitY=1;exitDx=0;exitDy=0;entryX=0;entryY=0;entryDx=0;entryDy=0;" edge="1" parent="1" source="2gUIK2lD_gpO5AOVNTZ6-3" target="2gUIK2lD_gpO5AOVNTZ6-4">
          <mxGeometry relative="1" as="geometry" />
        </mxCell>
        <mxCell id="2gUIK2lD_gpO5AOVNTZ6-3" value="Answer" style="rounded=1;whiteSpace=wrap;html=1;" vertex="1" parent="1">
          <mxGeometry x="300" y="210" width="120" height="60" as="geometry" />
        </mxCell>
        <mxCell id="2gUIK2lD_gpO5AOVNTZ6-10" style="rounded=0;orthogonalLoop=1;jettySize=auto;html=1;exitX=1;exitY=1;exitDx=0;exitDy=0;entryX=0;entryY=0;entryDx=0;entryDy=0;strokeWidth=3;strokeColor=#67AB9F;" edge="1" parent="1" source="2gUIK2lD_gpO5AOVNTZ6-4" target="2gUIK2lD_gpO5AOVNTZ6-5">
          <mxGeometry relative="1" as="geometry" />
        </mxCell>
        <mxCell id="2gUIK2lD_gpO5AOVNTZ6-4" value="Impact of Conversation" style="rounded=1;whiteSpace=wrap;html=1;" vertex="1" parent="1">
          <mxGeometry x="440" y="300" width="120" height="60" as="geometry" />
        </mxCell>
        <mxCell id="2gUIK2lD_gpO5AOVNTZ6-11" style="rounded=0;orthogonalLoop=1;jettySize=auto;html=1;exitX=1;exitY=1;exitDx=0;exitDy=0;entryX=0;entryY=0;entryDx=0;entryDy=0;strokeColor=#67AB9F;strokeWidth=3;" edge="1" parent="1" source="2gUIK2lD_gpO5AOVNTZ6-5" target="2gUIK2lD_gpO5AOVNTZ6-6">
          <mxGeometry relative="1" as="geometry" />
        </mxCell>
        <mxCell id="2gUIK2lD_gpO5AOVNTZ6-5" value="Withdraw" style="rounded=1;whiteSpace=wrap;html=1;" vertex="1" parent="1">
          <mxGeometry x="560" y="410" width="120" height="60" as="geometry" />
        </mxCell>
        <mxCell id="2gUIK2lD_gpO5AOVNTZ6-6" value="Result" style="rounded=1;whiteSpace=wrap;html=1;" vertex="1" parent="1">
          <mxGeometry x="690" y="520" width="120" height="60" as="geometry" />
        </mxCell>
        <mxCell id="2gUIK2lD_gpO5AOVNTZ6-20" style="edgeStyle=orthogonalEdgeStyle;rounded=0;orthogonalLoop=1;jettySize=auto;html=1;exitX=0;exitY=0.5;exitDx=0;exitDy=0;" edge="1" parent="1" source="2gUIK2lD_gpO5AOVNTZ6-12" target="2gUIK2lD_gpO5AOVNTZ6-1">
          <mxGeometry relative="1" as="geometry" />
        </mxCell>
        <mxCell id="2gUIK2lD_gpO5AOVNTZ6-21" style="edgeStyle=orthogonalEdgeStyle;rounded=0;orthogonalLoop=1;jettySize=auto;html=1;exitX=0;exitY=0.75;exitDx=0;exitDy=0;" edge="1" parent="1" source="2gUIK2lD_gpO5AOVNTZ6-12" target="2gUIK2lD_gpO5AOVNTZ6-2">
          <mxGeometry relative="1" as="geometry" />
        </mxCell>
        <mxCell id="2gUIK2lD_gpO5AOVNTZ6-22" style="edgeStyle=orthogonalEdgeStyle;rounded=0;orthogonalLoop=1;jettySize=auto;html=1;exitX=0.25;exitY=1;exitDx=0;exitDy=0;" edge="1" parent="1" source="2gUIK2lD_gpO5AOVNTZ6-12" target="2gUIK2lD_gpO5AOVNTZ6-3">
          <mxGeometry relative="1" as="geometry" />
        </mxCell>
        <mxCell id="2gUIK2lD_gpO5AOVNTZ6-23" style="edgeStyle=orthogonalEdgeStyle;rounded=0;orthogonalLoop=1;jettySize=auto;html=1;exitX=0.75;exitY=1;exitDx=0;exitDy=0;entryX=0.5;entryY=0;entryDx=0;entryDy=0;" edge="1" parent="1" source="2gUIK2lD_gpO5AOVNTZ6-12" target="2gUIK2lD_gpO5AOVNTZ6-5">
          <mxGeometry relative="1" as="geometry" />
        </mxCell>
        <mxCell id="2gUIK2lD_gpO5AOVNTZ6-24" style="edgeStyle=orthogonalEdgeStyle;rounded=0;orthogonalLoop=1;jettySize=auto;html=1;exitX=1;exitY=0.5;exitDx=0;exitDy=0;" edge="1" parent="1" source="2gUIK2lD_gpO5AOVNTZ6-12" target="2gUIK2lD_gpO5AOVNTZ6-6">
          <mxGeometry relative="1" as="geometry" />
        </mxCell>
        <mxCell id="2gUIK2lD_gpO5AOVNTZ6-12" value="Engagement" style="rounded=0;whiteSpace=wrap;html=1;" vertex="1" parent="1">
          <mxGeometry x="425" y="40" width="120" height="60" as="geometry" />
        </mxCell>
        <mxCell id="2gUIK2lD_gpO5AOVNTZ6-15" style="edgeStyle=orthogonalEdgeStyle;rounded=0;orthogonalLoop=1;jettySize=auto;html=1;exitX=0.5;exitY=0;exitDx=0;exitDy=0;entryX=0.5;entryY=1;entryDx=0;entryDy=0;" edge="1" parent="1" source="2gUIK2lD_gpO5AOVNTZ6-13" target="2gUIK2lD_gpO5AOVNTZ6-12">
          <mxGeometry relative="1" as="geometry" />
        </mxCell>
        <mxCell id="2gUIK2lD_gpO5AOVNTZ6-25" style="edgeStyle=orthogonalEdgeStyle;rounded=0;orthogonalLoop=1;jettySize=auto;html=1;exitX=0;exitY=0.5;exitDx=0;exitDy=0;entryX=0.5;entryY=0;entryDx=0;entryDy=0;" edge="1" parent="1" source="2gUIK2lD_gpO5AOVNTZ6-13" target="2gUIK2lD_gpO5AOVNTZ6-4">
          <mxGeometry relative="1" as="geometry" />
        </mxCell>
        <mxCell id="2gUIK2lD_gpO5AOVNTZ6-26" style="edgeStyle=orthogonalEdgeStyle;rounded=0;orthogonalLoop=1;jettySize=auto;html=1;exitX=0.5;exitY=1;exitDx=0;exitDy=0;entryX=0.9;entryY=-0.011;entryDx=0;entryDy=0;entryPerimeter=0;" edge="1" parent="1" source="2gUIK2lD_gpO5AOVNTZ6-13" target="2gUIK2lD_gpO5AOVNTZ6-5">
          <mxGeometry relative="1" as="geometry" />
        </mxCell>
        <mxCell id="2gUIK2lD_gpO5AOVNTZ6-13" value="Life" style="whiteSpace=wrap;html=1;" vertex="1" parent="1">
          <mxGeometry x="620" y="140" width="120" height="60" as="geometry" />
        </mxCell>
        <mxCell id="2gUIK2lD_gpO5AOVNTZ6-17" style="edgeStyle=orthogonalEdgeStyle;rounded=0;orthogonalLoop=1;jettySize=auto;html=1;exitX=0.5;exitY=0;exitDx=0;exitDy=0;entryX=0.5;entryY=1;entryDx=0;entryDy=0;" edge="1" parent="1" source="2gUIK2lD_gpO5AOVNTZ6-14" target="2gUIK2lD_gpO5AOVNTZ6-2">
          <mxGeometry relative="1" as="geometry" />
        </mxCell>
        <mxCell id="2gUIK2lD_gpO5AOVNTZ6-18" style="edgeStyle=orthogonalEdgeStyle;rounded=0;orthogonalLoop=1;jettySize=auto;html=1;exitX=1;exitY=0.5;exitDx=0;exitDy=0;entryX=0;entryY=0.75;entryDx=0;entryDy=0;" edge="1" parent="1" source="2gUIK2lD_gpO5AOVNTZ6-14" target="2gUIK2lD_gpO5AOVNTZ6-6">
          <mxGeometry relative="1" as="geometry" />
        </mxCell>
        <mxCell id="2gUIK2lD_gpO5AOVNTZ6-19" style="edgeStyle=orthogonalEdgeStyle;rounded=0;orthogonalLoop=1;jettySize=auto;html=1;exitX=0.25;exitY=0;exitDx=0;exitDy=0;entryX=0.5;entryY=1;entryDx=0;entryDy=0;" edge="1" parent="1" source="2gUIK2lD_gpO5AOVNTZ6-14" target="2gUIK2lD_gpO5AOVNTZ6-1">
          <mxGeometry relative="1" as="geometry" />
        </mxCell>
        <mxCell id="2gUIK2lD_gpO5AOVNTZ6-14" value="Academic Capacity" style="whiteSpace=wrap;html=1;" vertex="1" parent="1">
          <mxGeometry x="120" y="540" width="120" height="60" as="geometry" />
        </mxCell>
        <mxCell id="2gUIK2lD_gpO5AOVNTZ6-29" style="edgeStyle=orthogonalEdgeStyle;rounded=0;orthogonalLoop=1;jettySize=auto;html=1;exitX=1;exitY=0.5;exitDx=0;exitDy=0;entryX=0;entryY=0.5;entryDx=0;entryDy=0;" edge="1" parent="1" source="2gUIK2lD_gpO5AOVNTZ6-27" target="2gUIK2lD_gpO5AOVNTZ6-4">
          <mxGeometry relative="1" as="geometry" />
        </mxCell>
        <mxCell id="2gUIK2lD_gpO5AOVNTZ6-27" value="Framing of Conversation" style="rounded=1;whiteSpace=wrap;html=1;fillColor=#dae8fc;strokeColor=#6c8ebf;" vertex="1" parent="1">
          <mxGeometry x="280" y="300" width="120" height="60" as="geometry" />
        </mxCell>
        <mxCell id="2gUIK2lD_gpO5AOVNTZ6-32" style="edgeStyle=orthogonalEdgeStyle;rounded=0;orthogonalLoop=1;jettySize=auto;html=1;exitX=0.5;exitY=0;exitDx=0;exitDy=0;entryX=0.5;entryY=1;entryDx=0;entryDy=0;" edge="1" parent="1" source="2gUIK2lD_gpO5AOVNTZ6-31" target="2gUIK2lD_gpO5AOVNTZ6-27">
          <mxGeometry relative="1" as="geometry" />
        </mxCell>
        <mxCell id="2gUIK2lD_gpO5AOVNTZ6-31" value="Direction for Caller" style="rounded=1;whiteSpace=wrap;html=1;fillColor=#dae8fc;strokeColor=#6c8ebf;" vertex="1" parent="1">
          <mxGeometry x="280" y="410" width="120" height="60" as="geometry" />
        </mxCell>
        <mxCell id="2gUIK2lD_gpO5AOVNTZ6-34" style="edgeStyle=orthogonalEdgeStyle;rounded=0;orthogonalLoop=1;jettySize=auto;html=1;exitX=0.5;exitY=0;exitDx=0;exitDy=0;entryX=0.25;entryY=1;entryDx=0;entryDy=0;" edge="1" parent="1" source="2gUIK2lD_gpO5AOVNTZ6-33" target="2gUIK2lD_gpO5AOVNTZ6-1">
          <mxGeometry relative="1" as="geometry" />
        </mxCell>
        <mxCell id="2gUIK2lD_gpO5AOVNTZ6-35" style="edgeStyle=orthogonalEdgeStyle;rounded=0;orthogonalLoop=1;jettySize=auto;html=1;exitX=1;exitY=0.5;exitDx=0;exitDy=0;entryX=0;entryY=0.5;entryDx=0;entryDy=0;" edge="1" parent="1" source="2gUIK2lD_gpO5AOVNTZ6-33" target="2gUIK2lD_gpO5AOVNTZ6-31">
          <mxGeometry relative="1" as="geometry" />
        </mxCell>
        <mxCell id="2gUIK2lD_gpO5AOVNTZ6-39" style="edgeStyle=none;rounded=0;orthogonalLoop=1;jettySize=auto;html=1;exitX=1;exitY=0.75;exitDx=0;exitDy=0;strokeColor=#67AB9F;strokeWidth=3;" edge="1" parent="1" source="2gUIK2lD_gpO5AOVNTZ6-33" target="2gUIK2lD_gpO5AOVNTZ6-6">
          <mxGeometry relative="1" as="geometry" />
        </mxCell>
        <mxCell id="2gUIK2lD_gpO5AOVNTZ6-33" value="Learning Design" style="rounded=1;whiteSpace=wrap;html=1;" vertex="1" parent="1">
          <mxGeometry x="40" y="430" width="120" height="60" as="geometry" />
        </mxCell>
      </root>
    </mxGraphModel>
  </diagram>
</mxfile>
